<?xml version="1.0" encoding="utf-8"?>
<!-- Svg Vector Icons : http://www.onlinewebfonts.com/icon -->
<!DOCTYPE svg PUBLIC "-//W3C//DTD SVG 1.1//EN" "http://www.w3.org/Graphics/SVG/1.1/DTD/svg11.dtd">
<svg version="1.1" xmlns="http://www.w3.org/2000/svg" xmlns:xlink="http://www.w3.org/1999/xlink" x="0px" y="0px" viewBox="0 0 1000 1000" enable-background="new 0 0 1000 1000" xml:space="preserve">
<metadata> Svg Vector Icons : http://www.onlinewebfonts.com/icon </metadata>
<g><path d="M969.5,870.6l-257-257c42.9-62.1,68.2-137.3,68.2-218.3C780.7,182.9,607.8,10,395.4,10C182.9,10,10,182.9,10,395.4c0,212.5,172.9,385.3,385.4,385.3c81,0,156.2-25.3,218.3-68.2l257,257c13.6,13.6,31.6,20.4,49.4,20.4c17.9,0,35.8-6.8,49.4-20.4C996.8,942.3,996.8,897.9,969.5,870.6z M395.4,740.9c-190.6,0-345.6-155-345.6-345.6c0-190.6,155-345.6,345.6-345.6c190.6,0,345.6,155,345.6,345.6C740.9,585.9,585.9,740.9,395.4,740.9z M941.4,941.4c-11.8,11.8-30.9,11.8-42.7,0L645.4,688c15.3-13.1,29.6-27.4,42.7-42.7l253.4,253.4C953.2,910.5,953.2,929.7,941.4,941.4z"/><path d="M419.8,123.9c-79.6-2.5-154.1,26.8-210.1,82.7c-55.9,55.9-85.3,130.6-82.7,210.1c0.4,10.8,9.2,19.2,19.8,19.2c0.2,0,0.4,0,0.7,0c11-0.4,19.6-9.5,19.2-20.5c-2.2-68.4,23-132.6,71.1-180.7c48.1-48.1,112.1-73.6,180.6-71.1c10.8,0.6,20.2-8.2,20.5-19.2C439.4,133.5,430.8,124.3,419.8,123.9z"/></g>
</svg>